<?xml version="1.0" standalone="no"?>
<!DOCTYPE svg PUBLIC "-//W3C//DTD SVG 20010904//EN"
 "http://www.w3.org/TR/2001/REC-SVG-20010904/DTD/svg10.dtd">
<svg version="1.0" xmlns="http://www.w3.org/2000/svg"
 width="1005.000000pt" height="1005.000000pt" viewBox="0 0 1005.000000 1005.000000"
 preserveAspectRatio="xMidYMid meet">
<metadata>
Created by potrace 1.11, written by Peter Selinger 2001-2013
</metadata>
<g transform="translate(0.000000,1005.000000) scale(0.100000,-0.100000)"
fill="#000000" stroke="none">
<path d="M5635 7291 c-11 -3 -764 -6 -1672 -6 -1095 0 -1653 -3 -1653 -10 0
-7 -3 -7 -8 0 -4 6 -75 10 -177 10 -102 0 -173 -4 -177 -10 -5 -6 -8 -6 -8 1
0 6 -7 11 -15 11 -8 0 -15 -5 -15 -11 0 -7 -3 -7 -8 -1 -8 12 -262 14 -262 2
0 -5 -5 -5 -12 -1 -16 10 -78 11 -78 1 0 -5 -5 -5 -11 -1 -15 9 -124 8 -139
-1 -5 -3 -10 -3 -10 2 0 4 -143 7 -317 5 -606 -4 -762 -4 -772 3 -6 3 -11 3
-11 -2 0 -4 -57 -7 -126 -7 l-127 2 49 -47 c27 -26 52 -46 55 -44 3 1 12 -6
21 -15 22 -25 107 -95 132 -109 11 -7 17 -12 11 -13 -5 0 2 -8 16 -18 28 -18
117 -92 155 -130 13 -13 24 -21 24 -18 0 3 13 -7 29 -22 15 -15 39 -36 52 -46
59 -47 144 -122 147 -128 2 -5 10 -8 18 -8 9 0 12 -4 9 -10 -3 -5 1 -10 10
-10 8 0 18 -7 21 -15 3 -8 14 -17 25 -20 11 -4 17 -11 14 -16 -4 -5 1 -9 9 -9
8 0 21 -8 28 -18 7 -10 31 -30 53 -45 22 -15 35 -27 30 -27 -10 0 25 -27 38
-29 4 0 22 -15 41 -33 18 -18 55 -51 81 -73 27 -22 58 -49 71 -60 49 -44 65
-55 75 -55 5 0 7 -4 4 -10 -3 -5 -2 -10 4 -10 5 0 21 -10 34 -22 14 -13 42
-36 63 -53 21 -16 48 -39 60 -50 12 -11 39 -33 60 -50 21 -16 50 -42 65 -57
14 -16 30 -28 34 -28 4 0 21 -13 37 -30 15 -16 30 -30 33 -30 6 0 54 -41 92
-78 12 -13 23 -20 23 -16 0 4 9 -5 21 -20 11 -14 25 -26 31 -26 6 0 18 -8 27
-18 9 -9 45 -42 81 -72 36 -30 67 -57 70 -60 3 -3 28 -23 55 -45 48 -38 61
-48 116 -98 14 -12 48 -41 75 -62 27 -22 56 -48 65 -57 9 -10 19 -15 23 -11 3
3 6 2 6 -3 0 -5 35 -39 77 -74 43 -36 83 -69 89 -75 7 -5 31 -26 54 -45 23
-19 53 -45 66 -57 13 -13 26 -23 30 -23 4 0 12 -8 19 -17 10 -14 6 -22 -34
-56 -25 -22 -54 -47 -63 -56 -9 -9 -36 -32 -59 -51 -23 -19 -49 -43 -58 -52
-8 -10 -18 -18 -22 -18 -4 0 -25 -18 -48 -40 -22 -22 -46 -40 -52 -40 -5 0 -7
-4 -4 -10 3 -5 1 -10 -5 -10 -6 0 -17 -6 -24 -12 -23 -22 -154 -137 -300 -261
-26 -23 -64 -57 -82 -75 -19 -18 -34 -30 -34 -26 0 4 -13 -6 -28 -22 -46 -47
-96 -89 -104 -87 -4 2 -10 -6 -13 -17 -4 -11 -13 -20 -21 -20 -8 0 -14 -4 -14
-10 0 -5 -5 -10 -10 -10 -6 0 -25 -16 -42 -35 -17 -20 -32 -34 -34 -32 -2 2
-21 -12 -42 -32 -21 -20 -64 -58 -96 -86 -32 -27 -80 -70 -106 -93 -27 -24
-51 -44 -54 -43 -3 0 -28 -21 -55 -47 -70 -66 -101 -92 -112 -92 -6 0 -7 -4
-4 -10 3 -5 3 -10 -2 -10 -4 0 -22 -13 -39 -28 -17 -15 -53 -45 -79 -67 -27
-22 -66 -56 -87 -76 -21 -20 -38 -35 -38 -33 0 2 -11 -7 -24 -19 -60 -56 -96
-87 -100 -87 -2 0 -19 -15 -38 -33 -61 -58 -106 -97 -112 -97 -3 0 -23 -17
-45 -37 -21 -21 -61 -57 -87 -80 -27 -23 -60 -51 -74 -63 -14 -12 -42 -36 -64
-53 -21 -18 -54 -47 -72 -66 -19 -19 -34 -30 -34 -25 -1 5 -7 -2 -15 -16 -8
-14 -14 -21 -15 -16 0 5 -13 -4 -28 -20 -16 -16 -46 -42 -66 -59 -51 -40 -66
-55 -66 -64 0 -8 156 -9 1756 -15 408 -2 746 -6 753 -10 6 -4 11 -3 11 1 0 9
117 9 125 1 3 -3 25 -2 50 2 26 4 48 3 55 -4 7 -7 10 -7 10 1 0 7 14 8 40 3
25 -5 40 -4 40 3 0 6 5 5 13 -1 8 -7 18 -7 27 -2 9 5 19 5 27 -2 9 -7 13 -7
13 1 0 7 4 10 9 6 17 -10 71 -13 77 -4 3 5 13 5 23 0 9 -5 23 -6 30 -1 8 4 26
4 41 0 15 -4 33 -4 41 1 8 4 19 3 26 -3 10 -8 13 -7 13 3 0 9 3 10 8 4 4 -6
268 -11 747 -12 407 -1 1351 -4 2097 -7 1347 -5 1357 -4 1380 15 13 11 38 34
55 50 18 16 37 29 43 29 6 0 8 5 5 10 -3 6 -2 10 2 10 5 0 28 18 51 39 23 22
42 37 42 34 0 -3 13 7 28 23 15 16 47 45 71 64 24 19 53 45 64 57 11 12 24 20
29 17 4 -3 8 2 8 10 0 9 5 16 11 16 6 0 28 18 50 40 21 21 39 37 39 34 0 -3
11 5 24 18 47 46 74 66 82 60 4 -4 4 -2 1 4 -4 7 0 17 8 24 8 7 15 10 15 7 0
-3 22 16 50 43 27 27 50 45 50 42 0 -4 5 1 11 11 5 9 16 17 24 17 7 0 17 9 20
21 4 11 9 18 12 16 2 -3 12 2 22 11 26 26 122 108 163 140 21 16 35 32 31 36
-3 3 -2 6 4 6 5 0 23 12 40 28 17 15 50 43 74 62 23 19 62 54 85 76 24 23 45
40 48 37 2 -3 11 4 18 16 7 12 16 21 20 21 3 0 23 16 42 35 20 19 41 35 47 35
5 0 7 4 4 10 -3 5 -2 10 4 10 10 0 43 26 91 73 16 15 31 27 33 27 3 0 18 12
34 28 41 39 146 132 149 132 3 0 71 59 105 92 15 14 30 23 33 20 3 -3 6 3 6
13 0 10 3 16 6 12 3 -3 17 4 30 16 34 32 54 49 88 75 16 12 27 22 23 22 -4 0
-2 6 5 14 7 8 16 12 20 10 3 -2 15 7 26 21 11 14 23 25 27 25 3 0 19 12 35 28
15 15 47 43 70 62 23 19 52 44 64 55 12 11 42 37 67 58 24 21 73 64 108 95 35
31 66 56 69 54 5 -4 31 30 32 41 0 4 -6 7 -13 7 -14 0 -14 16 -2 108 4 28 2
42 -6 42 -6 0 -24 14 -40 31 -16 17 -29 29 -29 26 0 -3 -17 11 -39 31 -21 20
-59 55 -85 77 -25 22 -59 51 -74 65 -16 14 -62 54 -103 90 -40 36 -84 75 -96
87 -13 12 -23 20 -23 18 0 -3 -15 10 -34 28 -32 30 -76 69 -175 154 -24 21
-56 49 -71 63 -15 14 -53 48 -86 77 -32 28 -71 62 -85 75 -15 12 -51 43 -80
68 -46 40 -81 71 -155 140 -12 11 -27 20 -33 20 -6 0 -11 7 -11 15 0 8 -5 15
-10 15 -9 0 -38 24 -126 106 -18 17 -36 29 -39 26 -3 -3 -5 3 -5 13 0 10 -3
16 -6 12 -3 -3 -17 5 -31 19 -13 13 -28 24 -34 24 -6 0 -7 5 -4 10 3 6 2 10
-4 10 -8 0 -41 27 -120 99 -14 13 -50 44 -80 70 -30 25 -69 60 -87 76 -60 56
-84 75 -95 75 -5 0 -7 5 -4 10 3 6 2 10 -3 10 -5 0 -22 12 -38 28 -17 15 -56
50 -88 77 -32 28 -75 66 -96 85 -21 19 -48 41 -59 49 -11 8 -17 19 -14 24 3 6
1 7 -5 3 -6 -3 -18 4 -26 16 -9 12 -16 20 -16 16 0 -6 -67 52 -126 110 -19 18
-34 30 -34 27 0 -3 -18 12 -40 35 -21 22 -42 40 -45 40 -13 0 -34 28 -27 35 4
5 2 6 -4 2 -5 -3 -27 -2 -47 3 -20 4 -37 5 -37 1 0 -6 -189 -6 -260 0 -19 2
-40 0 -46 -4 -6 -3 -25 -2 -42 2 -17 5 -33 7 -36 4 -8 -8 -181 -8 -193 0 -7 4
-14 4 -16 0 -4 -7 -62 -9 -77 -3 -3 1 -9 1 -15 0 -26 -7 -125 -4 -125 3 0 5
-5 5 -11 1 -9 -5 -375 -9 -404 -4 -5 2 -14 1 -20 0 -25 -5 -495 -4 -498 1 -1
4 -11 4 -22 0z"/>
</g>
</svg>
